<svg width="501" shape-rendering="geometricPrecision" height="94" viewBox="0 0 501 94" fill="none" xmlns="http://www.w3.org/2000/svg">
<g filter="url(#filter0_iii_24_34)">
<path d="M63.4 60C63.4 65.6 61.3667 70.5 57.3 74.7C53.3 78.8333 47.5667 81.5667 40.1 82.9V94H26V83.4C21 83.1333 16.2 82.3667 11.6 81.1C7.06667 79.8333 3.3 78.2667 0.3 76.4L7.9 59.2C11.2333 61.1333 14.9667 62.7 19.1 63.9C23.2333 65.0333 27.2 65.6 31 65.6C34.2667 65.6 36.6 65.3 38 64.7C39.4 64.0333 40.1 63.0667 40.1 61.8C40.1 60.3333 39.1667 59.2333 37.3 58.5C35.5 57.7667 32.5 56.9667 28.3 56.1C22.9 54.9667 18.4 53.7667 14.8 52.5C11.2 51.1667 8.06667 49.0333 5.4 46.1C2.73333 43.1 1.4 39.0667 1.4 34C1.4 28.1333 3.5 23.1 7.7 18.9C11.9667 14.7 18.0667 12.0333 26 10.9V-5.24521e-06H40.1V10.7C48.1 11.4333 54.8667 13.3667 60.4 16.5L53.3 33.6C46.4333 30.1333 39.9333 28.4 33.8 28.4C27.7333 28.4 24.7 29.8667 24.7 32.8C24.7 34.2 25.6 35.2667 27.4 36C29.2 36.6667 32.1667 37.4 36.3 38.2C41.6333 39.2 46.1333 40.3667 49.8 41.7C53.4667 42.9667 56.6333 45.0667 59.3 48C62.0333 50.9333 63.4 54.9333 63.4 60Z" fill="#00B612"/>
<path d="M116.923 64.5C122.789 64.5 127.889 61.7667 132.223 56.3L147.123 69.6C143.656 74.1333 139.256 77.6 133.923 80C128.589 82.4 122.523 83.6 115.723 83.6C106.856 83.6 99.1227 81.4333 92.5227 77.1C85.9227 72.7 81.3227 66.8333 78.7227 59.5H67.7227V48.3H76.7227V47V45.7H67.7227V34.5H78.7227C81.3227 27.1667 85.9227 21.3333 92.5227 17C99.1227 12.6 106.856 10.4 115.723 10.4C122.523 10.4 128.589 11.6 133.923 14C139.256 16.4 143.656 19.8667 147.123 24.4L132.223 37.7C127.889 32.2333 122.789 29.5 116.923 29.5C111.856 29.5 107.823 31.1667 104.823 34.5H121.923V45.7H100.523V47V48.3H121.923V59.5H104.823C107.823 62.8333 111.856 64.5 116.923 64.5Z" fill="#002CC7"/>
<path d="M158.819 7.8H163.819V82H158.819V7.8ZM200.593 11.7C194.06 11.7 190.793 15.2 190.793 22.2V29.8H207.493V34.1H190.893V82H185.893V34.1H176.293V29.8H185.893V21.8C185.893 17.4 187.16 13.9 189.693 11.3C192.226 8.7 195.793 7.39999 200.393 7.39999C202.393 7.39999 204.293 7.69999 206.093 8.3C207.96 8.83333 209.493 9.66666 210.693 10.8L208.693 14.6C206.56 12.6667 203.86 11.7 200.593 11.7ZM271.005 46C274.005 47.3333 276.305 49.1667 277.905 51.5C279.572 53.7667 280.405 56.5 280.405 59.7C280.405 67.1 277.339 72.6667 271.205 76.4C265.139 80.1333 257.305 82 247.705 82H207.305L221.305 12H258.405C266.605 12 272.839 13.4667 277.105 16.4C281.372 19.2667 283.505 23.3667 283.505 28.7C283.505 32.6333 282.405 36.1 280.205 39.1C278.005 42.0333 274.939 44.3333 271.005 46ZM241.205 28.5L239.105 38.9H251.105C256.305 38.9 258.905 36.8667 258.905 32.8C258.905 31.4 258.372 30.3333 257.305 29.6C256.239 28.8667 254.705 28.5 252.705 28.5H241.205ZM249.005 65.5C251.405 65.5 253.339 64.9667 254.805 63.9C256.272 62.7667 257.005 61.1667 257.005 59.1C257.005 57.6333 256.439 56.5 255.305 55.7C254.239 54.9 252.872 54.5 251.205 54.5H236.005L233.805 65.5H249.005ZM354.949 27.3L344.049 82H322.749L323.749 77C319.616 81 314.683 83 308.949 83C305.216 83 301.616 82 298.149 80C294.683 78 291.849 75.1 289.649 71.3C287.516 67.4333 286.449 62.9 286.449 57.7C286.449 51.8333 287.749 46.5 290.349 41.7C293.016 36.9 296.583 33.1333 301.049 30.4C305.516 27.6667 310.349 26.3 315.549 26.3C322.883 26.3 328.083 28.5667 331.149 33.1L332.349 27.3H354.949ZM309.349 56.6C309.349 59.2 310.049 61.3 311.449 62.9C312.916 64.4333 314.916 65.2 317.449 65.2C320.383 65.2 322.749 64.0667 324.549 61.8C326.416 59.5333 327.349 56.5 327.349 52.7C327.349 50.1 326.616 48.0333 325.149 46.5C323.749 44.9 321.783 44.1 319.249 44.1C316.316 44.1 313.916 45.2333 312.049 47.5C310.249 49.7667 309.349 52.8 309.349 56.6ZM401.469 26.3C407.402 26.3 412.135 27.9 415.669 31.1C419.269 34.3 421.069 38.9 421.069 44.9C421.069 47.1667 420.835 49.4667 420.369 51.8L414.369 82H391.769L397.269 54.5C397.535 52.9 397.669 51.8 397.669 51.2C397.669 47.2667 395.769 45.3 391.969 45.3C386.635 45.3 383.269 48.7667 381.869 55.7L376.569 82H353.969L364.869 27.3H386.169L385.069 32.8C387.402 30.6 389.969 28.9667 392.769 27.9C395.635 26.8333 398.535 26.3 401.469 26.3ZM472.684 52L490.584 82H464.084L454.684 66.1L448.884 71.5L446.784 82H424.184L438.984 7.8H461.584L454.584 42.9L472.284 27.3H500.084L472.684 52Z" fill="black"/>
</g>
<defs>
<filter id="filter0_iii_24_34" x="0.299988" y="0" width="499.784" height="94" filterUnits="userSpaceOnUse" color-interpolation-filters="sRGB">
<feFlood flood-opacity="0" result="BackgroundImageFix"/>
<feBlend mode="normal" in="SourceGraphic" in2="BackgroundImageFix" result="shape"/>
<feColorMatrix in="SourceAlpha" type="matrix" values="0 0 0 0 0 0 0 0 0 0 0 0 0 0 0 0 0 0 127 0" result="hardAlpha"/>
<feOffset/>
<feGaussianBlur stdDeviation="5"/>
<feComposite in2="hardAlpha" operator="arithmetic" k2="-1" k3="1"/>
<feColorMatrix type="matrix" values="0 0 0 0 0 0 0 0 0 0 0 0 0 0 0 0 0 0 1 0"/>
<feBlend mode="normal" in2="shape" result="effect1_innerShadow_24_34"/>
<feColorMatrix in="SourceAlpha" type="matrix" values="0 0 0 0 0 0 0 0 0 0 0 0 0 0 0 0 0 0 127 0" result="hardAlpha"/>
<feOffset/>
<feGaussianBlur stdDeviation="5"/>
<feComposite in2="hardAlpha" operator="arithmetic" k2="-1" k3="1"/>
<feColorMatrix type="matrix" values="0 0 0 0 0 0 0 0 0 0 0 0 0 0 0 0 0 0 1 0"/>
<feBlend mode="normal" in2="effect1_innerShadow_24_34" result="effect2_innerShadow_24_34"/>
<feColorMatrix in="SourceAlpha" type="matrix" values="0 0 0 0 0 0 0 0 0 0 0 0 0 0 0 0 0 0 127 0" result="hardAlpha"/>
<feOffset/>
<feGaussianBlur stdDeviation="2"/>
<feComposite in2="hardAlpha" operator="arithmetic" k2="-1" k3="1"/>
<feColorMatrix type="matrix" values="0 0 0 0 0 0 0 0 0 0 0 0 0 0 0 0 0 0 1 0"/>
<feBlend mode="normal" in2="effect2_innerShadow_24_34" result="effect3_innerShadow_24_34"/>
</filter>
</defs>
</svg>
