<svg width="24" height="24" viewBox="0 0 24 24" fill="none" xmlns="http://www.w3.org/2000/svg">
<path d="M21 12C20.7348 12 20.4804 12.1054 20.2929 12.2929C20.1054 12.4804 20 12.7348 20 13V19C20 19.2652 19.8946 19.5196 19.7071 19.7071C19.5196 19.8946 19.2652 20 19 20H5C4.73478 20 4.48043 19.8946 4.29289 19.7071C4.10536 19.5196 4 19.2652 4 19V5C4 4.73478 4.10536 4.48043 4.29289 4.29289C4.48043 4.10536 4.73478 4 5 4H11C11.2652 4 11.5196 3.89464 11.7071 3.70711C11.8946 3.51957 12 3.26522 12 3C12 2.73478 11.8946 2.48043 11.7071 2.29289C11.5196 2.10536 11.2652 2 11 2H5C4.20435 2 3.44129 2.31607 2.87868 2.87868C2.31607 3.44129 2 4.20435 2 5V19C2 19.7956 2.31607 20.5587 2.87868 21.1213C3.44129 21.6839 4.20435 22 5 22H19C19.7956 22 20.5587 21.6839 21.1213 21.1213C21.6839 20.5587 22 19.7956 22 19V13C22 12.7348 21.8946 12.4804 21.7071 12.2929C21.5196 12.1054 21.2652 12 21 12Z" fill="black"/>
<mask id="path-2-inside-1_202_37" fill="white">
<path d="M10.2119 14.7064C10.3048 14.7987 10.4152 14.872 10.537 14.9221C10.6587 14.9721 10.7893 14.9978 10.9212 14.9978C11.053 14.9978 11.1836 14.9721 11.3054 14.9221C11.4271 14.872 11.5376 14.7987 11.6304 14.7064L16.831 9.6888C17.0191 9.50328 17.1248 9.25165 17.1248 8.98928C17.1248 8.72691 17.0191 8.47529 16.831 8.28976C16.6429 8.10424 16.3877 8.00001 16.1217 8.00001C15.8557 8.00001 15.6005 8.10424 15.4124 8.28976L10.9212 12.6177L9.7124 11.4157C9.52429 11.2302 9.26916 11.1259 9.00313 11.1259C8.7371 11.1259 8.48197 11.2302 8.29385 11.4157C8.10574 11.6012 8.00006 11.8528 8.00006 12.1152C8.00006 12.3776 8.10574 12.6292 8.29385 12.8147L10.2119 14.7064Z"/>
</mask>
<path d="M10.2119 14.7064C10.3048 14.7987 10.4152 14.872 10.537 14.9221C10.6587 14.9721 10.7893 14.9978 10.9212 14.9978C11.053 14.9978 11.1836 14.9721 11.3054 14.9221C11.4271 14.872 11.5376 14.7987 11.6304 14.7064L16.831 9.6888C17.0191 9.50328 17.1248 9.25165 17.1248 8.98928C17.1248 8.72691 17.0191 8.47529 16.831 8.28976C16.6429 8.10424 16.3877 8.00001 16.1217 8.00001C15.8557 8.00001 15.6005 8.10424 15.4124 8.28976L10.9212 12.6177L9.7124 11.4157C9.52429 11.2302 9.26916 11.1259 9.00313 11.1259C8.7371 11.1259 8.48197 11.2302 8.29385 11.4157C8.10574 11.6012 8.00006 11.8528 8.00006 12.1152C8.00006 12.3776 8.10574 12.6292 8.29385 12.8147L10.2119 14.7064Z" fill="black"/>
<path d="M10.2119 14.7064L10.917 13.9973L10.9141 13.9944L10.2119 14.7064ZM10.9212 14.9978L10.9212 13.9978L10.9212 14.9978ZM11.6304 14.7064L10.9361 13.9867L10.9307 13.992L10.9253 13.9973L11.6304 14.7064ZM16.831 9.6888L17.5253 10.4085L17.5332 10.4008L16.831 9.6888ZM15.4124 8.28976L16.1064 9.00989L16.1146 9.00175L15.4124 8.28976ZM10.9212 12.6177L10.216 13.3268L10.9102 14.017L11.6151 13.3378L10.9212 12.6177ZM9.7124 11.4157L10.4175 10.7066L10.4146 10.7037L9.7124 11.4157ZM8.29385 12.8147L7.59166 13.5267L7.59166 13.5267L8.29385 12.8147ZM9.50679 15.4155C9.69325 15.6009 9.91434 15.7473 10.1569 15.847L10.917 13.9971L10.917 13.9973L9.50679 15.4155ZM10.1569 15.847C10.3995 15.9467 10.6592 15.9978 10.9212 15.9978L10.9212 13.9978C10.9194 13.9978 10.9179 13.9975 10.917 13.9971L10.1569 15.847ZM10.9212 15.9978C11.1831 15.9978 11.4428 15.9467 11.6854 15.847L10.9253 13.9971C10.9244 13.9975 10.9229 13.9978 10.9212 13.9978L10.9212 15.9978ZM11.6854 15.847C11.928 15.7473 12.1491 15.6009 12.3355 15.4155L10.9253 13.9973L10.9253 13.9971L11.6854 15.847ZM12.3248 15.4261L17.5253 10.4085L16.1366 8.96915L10.9361 13.9867L12.3248 15.4261ZM17.5332 10.4008C17.9103 10.0288 18.1248 9.52137 18.1248 8.98928H16.1248C16.1248 8.98194 16.1278 8.97773 16.1288 8.97682L17.5332 10.4008ZM18.1248 8.98928C18.1248 8.45719 17.9103 7.94974 17.5332 7.57778L16.1288 9.00175C16.1278 9.00083 16.1248 8.99663 16.1248 8.98928H18.1248ZM17.5332 7.57778C17.1565 7.20628 16.6485 7.00001 16.1217 7.00001V9.00001C16.1269 9.00001 16.1292 9.0022 16.1288 9.00175L17.5332 7.57778ZM16.1217 7.00001C15.5949 7.00001 15.0869 7.20628 14.7102 7.57778L16.1146 9.00175C16.1142 9.0022 16.1164 9.00001 16.1217 9.00001V7.00001ZM14.7185 7.56969L10.2273 11.8976L11.6151 13.3378L16.1063 9.00984L14.7185 7.56969ZM11.6263 11.9086L10.4175 10.7066L9.00728 12.1248L10.216 13.3268L11.6263 11.9086ZM10.4146 10.7037C10.0379 10.3322 9.52994 10.1259 9.00313 10.1259V12.1259C9.00838 12.1259 9.01066 12.1281 9.01021 12.1277L10.4146 10.7037ZM9.00313 10.1259C8.47632 10.1259 7.96834 10.3322 7.59166 10.7037L8.99605 12.1277C8.99559 12.1281 8.99788 12.1259 9.00313 12.1259V10.1259ZM7.59166 10.7037C7.21451 11.0757 7.00006 11.5831 7.00006 12.1152H9.00006C9.00006 12.1226 8.99697 12.1268 8.99605 12.1277L7.59166 10.7037ZM7.00006 12.1152C7.00006 12.6473 7.21451 13.1548 7.59166 13.5267L8.99605 12.1028C8.99697 12.1037 9.00006 12.1079 9.00006 12.1152H7.00006ZM7.59166 13.5267L9.5097 15.4184L10.9141 13.9944L8.99605 12.1028L7.59166 13.5267Z" fill="black" mask="url(#path-2-inside-1_202_37)"/>
</svg>
